<?xml version="1.0" standalone="no"?>
<!DOCTYPE svg PUBLIC "-//W3C//DTD SVG 20010904//EN"
 "http://www.w3.org/TR/2001/REC-SVG-20010904/DTD/svg10.dtd">
<svg version="1.0" xmlns="http://www.w3.org/2000/svg"
 width="1024.000000pt" height="189.000000pt" viewBox="0 0 1024.000000 189.000000"
 preserveAspectRatio="xMidYMid meet">
<metadata>
Created by potrace 1.15, written by Peter Selinger 2001-2017
</metadata>
<g transform="translate(0.000000,189.000000) scale(0.100000,-0.100000)"
fill="#000000" stroke="none">
<path d="M3700 878 l0 -48 -87 0 c-47 0 -84 -2 -81 -5 7 -7 3469 -7 3476 0 3
3 -92 5 -211 5 l-217 0 0 48 c0 42 -3 48 -22 49 -29 3 -48 -14 -48 -42 0 -27
24 -49 45 -41 8 3 15 1 15 -4 0 -6 -124 -10 -330 -10 -181 0 -330 2 -330 4 0
2 7 23 15 46 8 24 13 45 11 47 -2 2 -10 -12 -16 -33 l-13 -37 -14 24 c-10 17
-12 18 -8 4 21 -60 43 -55 -254 -55 l-271 0 0 48 c0 42 -3 48 -22 49 -29 3
-48 -14 -48 -42 0 -27 24 -49 45 -41 8 3 15 1 15 -4 0 -6 -298 -10 -820 -10
-522 0 -820 4 -820 10 0 5 7 7 15 4 21 -8 45 14 45 41 0 28 -19 45 -48 42 -19
-1 -22 -7 -22 -49z"/>
<path d="M5102 558 c-28 -28 -1 -88 33 -74 8 3 15 1 15 -4 0 -6 -148 -11 -392
-12 l-393 -3 375 -5 c206 -3 735 -3 1175 0 l800 5 -777 3 -778 2 0 48 c0 43
-2 48 -23 50 -13 1 -29 -4 -35 -10z"/>
</g>
</svg>
